:SAMPLES-PER-SECOND 30
:FULLY-SPECIFIED
:DEGREES
387
root  50.3803 29.7709 15.3485 -178.566 -9.12274 -169.037
RightUpLeg  -34.1299 -3.03827 0.915426
RightLeg  47.1596 5.73644 5.37768
RightFoot  -1.6295 -0.00371947 0.116053
RightToes  -52.9962 -0.329705 -0.374311
Spine  11.0553 4.19948 4.94309
Spine1  21.2601 9.82536 3.52363
HEad  38.6304 8.47952 -3.73681
LeftShoulder1  0 -2.42657e-020 -4.95415e-022
LeftArm  -14.3181 -5.62479 -98.0626
LeftForeArm  45.8655 -26.4606 -5.00903
LeftHand  0.0966244 -7.83278 -1.78284
RightShoulder  0 2.42657e-020 1.07489e-018
RightArm  -44.0662 27.9016 75.8457
RightForeArm  69.5078 6.36857 1.06423
RightHand  0.580387 23.875 3.11554
LeftUpLeg  -26.6302 -12.0928 13.4745
LeftLeg  83.6553 1.17302 6.56604
LeftFoot  -9.18597 -0.084237 -1.04855
LeftToes  0.884539 1.28829e-006 1.15665e-007
388
root  50.5959 30.0397 14.9066 -178.085 -13.9053 -170.193
RightUpLeg  -33.0846 -7.16971 0.149031
RightLeg  47.2434 5.26074 4.94633
RightFoot  -2.76117 -0.0103849 -0.0533646
RightToes  -52.4939 -0.325166 -0.371862
Spine  11.1553 4.31381 5.05084
Spine1  21.4557 9.93094 4.22156
HEad  37.7166 3.55881 -2.42989
LeftShoulder1  0 -2.42657e-020 -4.95415e-022
LeftArm  -10.732 -4.69427 -98.2473
LeftForeArm  42.1414 -30.2077 -5.87264
LeftHand  0.0460033 -7.54121 -1.06895
RightShoulder  0 2.42657e-020 1.07489e-018
RightArm  -51.6355 24.8248 72.2428
RightForeArm  65.5161 6.38627 1.07735
RightHand  -0.083835 23.3077 -0.0364692
LeftUpLeg  -32.4965 -10.0592 10.8371
LeftLeg  86.2738 0.995865 7.56138
LeftFoot  -11.3312 -0.150016 -1.51207
LeftToes  3.48968 1.28829e-006 1.15665e-007
389
root  50.7288 30.5308 14.5078 -177.262 -18.2021 -171.385
RightUpLeg  -31.0999 -9.83145 -0.713307
RightLeg  44.9455 4.00872 3.47781
RightFoot  -2.92174 -0.00992187 -0.0115072
RightToes  -51.3116 -0.314546 -0.369716
Spine  11.1197 4.05398 4.95397
Spine1  21.503 9.46038 4.38123
HEad  35.8877 0.711563 -1.68003
LeftShoulder1  0 -2.42657e-020 -4.95415e-022
LeftArm  -8.42578 -2.36488 -97.1376
LeftForeArm  40.1943 -36.7678 -7.55866
LeftHand  -0.0374335 -7.2327 0.222555
RightShoulder  0 2.42657e-020 1.07489e-018
RightArm  -49.8053 19.9285 71.2128
RightForeArm  52.343 11.8027 2.08128
RightHand  -0.058322 23.9661 0.0952539
LeftUpLeg  -36.5203 -6.10085 6.8293
LeftLeg  84.4747 1.15203 7.02857
LeftFoot  -11.2619 -0.13121 -1.33073
LeftToes  1.60597 1.28829e-006 1.15665e-007
390
root  50.7991 31.1276 14.127 -176.018 -21.9432 -172.666
RightUpLeg  -28.7625 -11.9335 -1.54819
RightLeg  41.2677 2.80156 2.12968
RightFoot  -2.11113 -0.00522917 0.0937748
RightToes  -50.6911 -0.309012 -0.368688
Spine  10.7561 3.49383 4.58021
Spine1  20.817 8.33177 4.25425
HEad  34.6425 -0.515497 -1.26185
LeftShoulder1  0 -2.42657e-020 -4.95415e-022
LeftArm  -7.34393 1.09626 -95.2342
LeftForeArm  39.3161 -42.9923 -9.45904
LeftHand  -0.107113 -6.97572 1.38868
RightShoulder  0 2.42657e-020 1.07489e-018
RightArm  -42.5402 13.369 71.1045
RightForeArm  34.0046 19.9994 3.67006
RightHand  0.393169 24.0751 2.2142
LeftUpLeg  -38.7786 0.649735 2.05275
LeftLeg  79.2545 1.80892 6.96863
LeftFoot  -9.38431 -0.0850097 -1.03571
LeftToes  -1.98692 1.28829e-006 1.15665e-007
391
root  50.7903 31.7112 13.7596 -174.426 -25.7878 -173.83
RightUpLeg  -26.3595 -14.5152 -2.3119
RightLeg  37.0093 2.05907 1.33576
RightFoot  -0.97719 -0.0020275 0.139897
RightToes  -50.3908 -0.306343 -0.367996
Spine  10.1394 2.51287 4.07616
Spine1  19.6325 6.14703 4.17991
HEad  33.2035 -0.699907 -1.33308
LeftShoulder1  0 -2.42657e-020 -4.95415e-022
LeftArm  -6.66538 5.03813 -92.9705
LeftForeArm  37.5001 -48.8423 -11.6512
LeftHand  -0.169396 -6.81519 2.47688
RightShoulder  0 2.42657e-020 1.07489e-018
RightArm  -38.7308 7.38328 71.6677
RightForeArm  25.7624 28.5524 5.50179
RightHand  0.707407 24.5963 3.61506
LeftUpLeg  -40.3341 7.87492 -2.61752
LeftLeg  72.4239 2.76588 7.05302
LeftFoot  -8.74308 -0.0772444 -1.01042
LeftToes  -3.6157 1.28829e-006 1.15665e-007
392
root  50.7168 32.1799 13.4044 -173.07 -30.0745 -174.682
RightUpLeg  -23.3237 -16.7037 -2.86556
RightLeg  32.1358 0.444152 0.229525
RightFoot  -0.0879067 -0.00214049 0.131766
RightToes  -50.2454 -0.305053 -0.365392
Spine  9.49015 1.25511 3.56987
Spine1  18.3926 3.309 4.17928
HEad  31.4136 -0.417698 -0.9175
LeftShoulder1  0 -2.42657e-020 -4.95415e-022
LeftArm  -6.07153 8.95964 -90.6826
LeftForeArm  36.3731 -54.3303 -14.2564
LeftHand  -0.164115 -6.16425 2.68026
RightShoulder  0 2.42657e-020 1.07489e-018
RightArm  -37.0465 1.79494 72.8763
RightForeArm  22.82 37.2807 7.71735
RightHand  0.355028 24.695 1.99224
LeftUpLeg  -41.8507 13.5128 -6.24119
LeftLeg  66.0795 3.98218 7.55287
LeftFoot  -8.37016 -0.0832529 -1.13772
LeftToes  -3.52093 1.28829e-006 1.15665e-007
393
root  50.635 32.5224 13.0712 -171.603 -34.3385 -175.394
RightUpLeg  -20.5248 -18.6415 -2.9964
RightLeg  27.5585 -1.97808 -0.881577
RightFoot  0.277318 0.000770043 0.059209
RightToes  -48.5631 -0.290243 -0.358213
Spine  8.82236 -0.00726472 3.17208
Spine1  17.0877 0.295369 4.57461
HEad  29.2135 0.286116 -0.714697
LeftShoulder1  0 -2.42657e-020 -4.95415e-022
LeftArm  -4.39756 12.8104 -88.4025
LeftForeArm  36.4033 -59.7014 -17.6308
LeftHand  -0.178947 -5.65549 3.2557
RightShoulder  0 2.42657e-020 1.07489e-018
RightArm  -37.0015 -3.98285 73.7891
RightForeArm  20.2618 48.7965 11.6434
RightHand  0.523354 24.7474 2.75594
LeftUpLeg  -43.737 16.788 -8.54896
LeftLeg  60.1355 5.31224 7.93855
LeftFoot  -7.64843 -0.0822515 -1.23045
LeftToes  -3.94447 1.28829e-006 1.15665e-007
394
root  50.5088 32.5706 12.6905 -170.267 -38.9671 -176.072
RightUpLeg  -19.0615 -21.4916 -3.15291
RightLeg  26.1816 -3.62913 -1.50656
RightFoot  -0.924445 -0.00201167 0.12829
RightToes  -47.8552 -0.284075 -0.355062
Spine  8.60013 -0.795567 3.18127
Spine1  16.6321 -1.35363 4.68843
HEad  26.4346 1.63625 -0.480283
LeftShoulder1  0 -2.42657e-020 -4.95415e-022
LeftArm  -1.75819 15.5826 -86.5839
LeftForeArm  39.2049 -65.6913 -23.102
LeftHand  -0.243773 -5.66958 4.55563
RightShoulder  0 2.42657e-020 1.07489e-018
RightArm  -35.4657 -10.6046 73.3072
RightForeArm  24.3608 64.269 21.5762
RightHand  0.964955 24.7608 4.76519
LeftUpLeg  -45.9849 17.234 -9.219
LeftLeg  55.4303 6.49646 8.15807
LeftFoot  -7.96646 -0.100053 -1.4368
LeftToes  -2.68709 1.28829e-006 1.15665e-007
395
root  50.2889 32.454 12.2817 -169.418 -42.911 -176.794
RightUpLeg  -18.3108 -24.8419 -3.57826
RightLeg  27.3883 -4.18355 -1.84027
RightFoot  -2.93328 -0.00129301 0.327125
RightToes  -47.3385 -0.279597 -0.352828
Spine  8.68471 -1.1081 3.05139
Spine1  16.8041 -1.87395 4.31131
HEad  23.2608 3.19503 0.154824
LeftShoulder1  0 -2.42657e-020 -4.95415e-022
LeftArm  1.6786 17.0486 -84.6215
LeftForeArm  46.0561 -71.2499 -31.5257
LeftHand  -0.283534 -5.5895 5.44
RightShoulder  0 2.42657e-020 1.07489e-018
RightArm  -31.8018 -16.44 71.9511
RightForeArm  47.333 75.9506 45.2858
RightHand  0.395691 25.0126 2.15432
LeftUpLeg  -48.0864 17.3896 -9.04291
LeftLeg  50.8538 6.73969 7.20837
LeftFoot  -8.45328 -0.107434 -1.45364
LeftToes  0.141478 1.28829e-006 1.15665e-007
396
root  49.9979 32.2363 11.8067 -169.087 -45.9481 -177.022
RightUpLeg  -17.6149 -28.0884 -3.85366
RightLeg  29.0659 -3.94685 -1.87771
RightFoot  -5.04912 0.00600273 0.513766
RightToes  -47.4093 -0.277167 -0.350543
Spine  8.96958 -0.923729 2.82206
Spine1  17.3534 -1.38632 3.80479
HEad  19.8137 4.10433 1.24154
LeftShoulder1  0 -2.42657e-020 -4.95415e-022
LeftArm  5.7742 17.6384 -82.4828
LeftForeArm  59.3104 -76.3973 -47.2899
LeftHand  -0.297882 -5.87594 5.43567
RightShoulder  0 2.42657e-020 1.07489e-018
RightArm  -30.3839 -21.2192 72.1957
RightForeArm  110.638 79.5502 104.542
RightHand  -1.43448 24.3519 -6.27273
LeftUpLeg  -50.2286 18.9458 -8.91254
LeftLeg  45.3859 6.18847 5.48065
LeftFoot  -7.76509 -0.0762603 -1.12364
LeftToes  -0.82561 1.28829e-006 1.15665e-007
397
root  49.5832 31.9303 11.2456 -169.48 -48.5467 -176.57
RightUpLeg  -16.3729 -30.6515 -4.04222
RightLeg  30.6999 -3.87275 -1.98127
RightFoot  -7.0076 0.0195222 0.696456
RightToes  -47.7003 -0.275608 -0.348617
Spine  9.11715 -0.607569 2.63813
Spine1  17.6207 -0.632085 3.40762
HEad  17.5343 4.61835 2.36508
LeftShoulder1  0 -2.42657e-020 -4.95415e-022
LeftArm  9.17371 18.0518 -80.9801
LeftForeArm  84.8304 -79.5206 -74.3649
LeftHand  -0.32675 -6.15935 5.70395
RightShoulder  0 2.42657e-020 1.07489e-018
RightArm  -30.9901 -23.5741 73.301
RightForeArm  138.364 75.112 137.669
RightHand  -1.77808 24.7673 -7.71732
LeftUpLeg  -52.5004 21.7787 -9.49204
LeftLeg  39.3278 5.6322 4.02079
LeftFoot  -6.90303 -0.0508389 -0.842907
LeftToes  -0.635232 1.28829e-006 1.15665e-007
